Coordinates
version=1
nRows=15
nColumns=34
inDegrees=no

Units are S.I. units (second, meters, Newtons, ...)
If the header above contains a line with 'inDegrees', this indicates whether rotational values are in degrees (yes) or radians (no).

endheader
time	pelvis_tilt	pelvis_list	pelvis_rotation	pelvis_tx	pelvis_ty	pelvis_tz	hip_flexion_r	hip_adduction_r	hip_rotation_r	knee_angle_r	ankle_angle_r	subtalar_angle_r	mtp_angle_r	hip_flexion_l	hip_adduction_l	hip_rotation_l	knee_angle_l	ankle_angle_l	subtalar_angle_l	mtp_angle_l	lumbar_extension	lumbar_bending	lumbar_rotation	arm_flex_r	arm_add_r	arm_rot_r	elbow_flex_r	pro_sup_r	arm_flex_l	arm_add_l	arm_rot_l	elbow_flex_l	pro_sup_l
3.37	0.0132904	0.0128785	0.0590849	-0.201983	1.01448	-0.52474	0.346422	-0.0904249	-0.29082	0.787375	0.457308	-0.0723708	-0.0572718	0.400371	-0.286356	-0.122397	0.771971	0.242424	0.0300204	-0.0572593	-0.451872	0.0301337	0.0268523	0.178155	-0.241861	-0.204212	0.770092	1.70284	0.220192	-0.222687	-0.21899	0.825477	1.63549
3.38	0.00864994	0.015521	0.0592868	-0.204997	1.00953	-0.522863	0.369228	-0.0936213	-0.283873	0.81623	0.466778	-0.0811054	-0.0572717	0.424669	-0.286005	-0.112418	0.800018	0.244133	0.0217386	-0.0572593	-0.45865	0.0280797	0.0273802	0.193	-0.249504	-0.204313	0.780107	1.70154	0.233601	-0.228764	-0.216719	0.841928	1.63158
3.39	0.00419472	0.0180382	0.0595222	-0.207999	1.00436	-0.521067	0.391956	-0.0965182	-0.276727	0.845175	0.47635	-0.0897812	-0.0572716	0.44882	-0.285719	-0.103011	0.828208	0.246293	0.0140614	-0.0572593	-0.465645	0.0262595	0.0274936	0.208392	-0.257366	-0.204081	0.790184	1.69955	0.247057	-0.235087	-0.214591	0.858625	1.62634
3.4	-6.82425e-05	0.0203575	0.0599198	-0.210983	0.998985	-0.519365	0.414523	-0.0991296	-0.269666	0.874136	0.486043	-0.0982249	-0.0572716	0.472902	-0.285485	-0.0938806	0.856553	0.248862	0.00686956	-0.0572593	-0.472831	0.0248068	0.027112	0.224329	-0.265442	-0.20346	0.800241	1.69698	0.260553	-0.24163	-0.212688	0.875371	1.62039
3.41	-0.00413326	0.0224072	0.0605582	-0.213946	0.993416	-0.517765	0.43685	-0.101441	-0.26289	0.90302	0.495851	-0.106343	-0.0572715	0.496967	-0.285299	-0.0847826	0.885038	0.251778	7.56952e-05	-0.0572593	-0.480192	0.0238307	0.0262239	0.240799	-0.273732	-0.202413	0.810201	1.694	0.274094	-0.248349	-0.211088	0.891944	1.61454
3.42	-0.00800493	0.02412	0.0614653	-0.216885	0.987665	-0.516267	0.45888	-0.103409	-0.25651	0.931723	0.505734	-0.114122	-0.0572715	0.521051	-0.285175	-0.0755426	0.913633	0.25497	-0.00637812	-0.0572592	-0.487705	0.0234129	0.0248819	0.257775	-0.282234	-0.200907	0.820005	1.6908	0.287693	-0.255184	-0.209842	0.908138	1.60945
3.43	-0.0117088	0.0254426	0.0626221	-0.219795	0.981743	-0.514868	0.480595	-0.104987	-0.250559	0.960153	0.515633	-0.121596	-0.0572714	0.545186	-0.285138	-0.0660689	0.942297	0.258363	-0.0125275	-0.0572592	-0.495331	0.0236003	0.0231877	0.275214	-0.290953	-0.198908	0.829608	1.68751	0.301358	-0.262061	-0.208961	0.92379	1.60548
3.44	-0.0152995	0.026347	0.0639682	-0.222675	0.975659	-0.513564	0.502028	-0.106144	-0.245022	0.988242	0.525482	-0.128794	-0.0572714	0.569409	-0.285212	-0.0563559	0.970985	0.261889	-0.018396	-0.0572592	-0.502997	0.0243966	0.021274	0.293063	-0.29989	-0.19639	0.838981	1.68413	0.315086	-0.268896	-0.208437	0.938797	1.60266
3.45	-0.0188612	0.0268357	0.0654084	-0.22552	0.969418	-0.512349	0.523262	-0.106883	-0.239854	1.01595	0.535228	-0.13571	-0.0572713	0.593757	-0.28542	-0.0464768	0.999644	0.265484	-0.0240067	-0.0572592	-0.5106	0.0257553	0.019288	0.311267	-0.309036	-0.193338	0.848091	1.68057	0.32886	-0.275609	-0.208247	0.953114	1.60076
3.46	-0.0224948	0.026941	0.0668245	-0.228326	0.963023	-0.511215	0.544418	-0.107234	-0.234995	1.04327	0.544831	-0.142307	-0.0572712	0.61826	-0.285776	-0.0365619	1.02821	0.269095	-0.0293901	-0.0572592	-0.518015	0.0275831	0.0173774	0.32977	-0.318365	-0.189771	0.856904	1.67667	0.342654	-0.282133	-0.208361	0.966737	1.59949
3.47	-0.026297	0.0267163	0.0680924	-0.23109	0.956475	-0.510152	0.565615	-0.107242	-0.230378	1.07021	0.554266	-0.148535	-0.0572712	0.642926	-0.286287	-0.0267654	1.05661	0.272681	-0.0345835	-0.0572592	-0.525124	0.0297545	0.015675	0.348526	-0.327829	-0.185747	0.865378	1.67236	0.356442	-0.288419	-0.208748	0.979682	1.59855
3.48	-0.0303389	0.0262258	0.0690993	-0.23381	0.949805	-0.509157	0.586951	-0.106951	-0.225943	1.09678	0.56352	-0.154356	-0.0572711	0.66773	-0.286959	-0.0172303	1.08475	0.276215	-0.0396196	-0.0572592	-0.531844	0.0321342	0.0142862	0.367501	-0.337359	-0.18136	0.873477	1.66762	0.370205	-0.294442	-0.209388	0.99197	1.59778
3.49	-0.0346508	0.0255331	0.0697553	-0.236483	0.943023	-0.50822	0.608472	-0.106395	-0.221642	1.12299	0.572591	-0.159747	-0.0572711	0.692608	-0.287796	-0.00806608	1.11257	0.279689	-0.044513	-0.0572592	-0.538145	0.0345951	0.0132816	0.386668	-0.346878	-0.176712	0.881189	1.66254	0.383933	-0.300198	-0.210282	1.00363	1.59719
3.5	-0.0392184	0.0246942	0.0699955	-0.23911	0.936143	-0.507333	0.630167	-0.105596	-0.217443	1.14883	0.581486	-0.164695	-0.057271	0.717461	-0.288808	0.000659417	1.13997	0.283107	-0.0492522	-0.0572592	-0.54406	0.0370318	0.0126978	0.406013	-0.356301	-0.171897	0.888536	1.65717	0.397621	-0.3057	-0.21145	1.01469	1.59689
3.51	-0.0439859	0.0237509	0.0697775	-0.241691	0.929184	-0.506486	0.651975	-0.104557	-0.213328	1.17431	0.590215	-0.169191	-0.057271	0.742166	-0.290014	0.00891961	1.1669	0.286484	-0.0538044	-0.0572591	-0.549681	0.0393686	0.0125443	0.425532	-0.365547	-0.166981	0.895568	1.65152	0.411269	-0.310966	-0.212932	1.02521	1.59698
